<?xml version="1.0" encoding="UTF-8" standalone="no"?>
<!-- Created with Inkscape (http://www.inkscape.org/) -->

<svg
   width="19.10231mm"
   height="13.858938mm"
   viewBox="0 0 19.10231 13.858938"
   version="1.1"
   id="svg5"
   xmlns:inkscape="http://www.inkscape.org/namespaces/inkscape"
   xmlns:sodipodi="http://sodipodi.sourceforge.net/DTD/sodipodi-0.dtd"
   xmlns="http://www.w3.org/2000/svg"
   xmlns:svg="http://www.w3.org/2000/svg">
  <sodipodi:namedview
     id="namedview7"
     pagecolor="#505050"
     bordercolor="#ffffff"
     borderopacity="1"
     inkscape:showpageshadow="0"
     inkscape:pageopacity="0"
     inkscape:pagecheckerboard="1"
     inkscape:deskcolor="#505050"
     inkscape:document-units="mm"
     showgrid="false" />
  <defs
     id="defs2" />
  <g
     inkscape:label="Camada 1"
     inkscape:groupmode="layer"
     id="layer1"
     transform="translate(-134.41364,-23.445962)">
    <path
       style="fill:#ffffff;fill-opacity:0.529412;stroke-width:0.264583"
       id="path60-1"
       d="m 136.51244,25.487962 c 1.67947,0.409599 3.45191,0.374394 5.16985,0.379447 2.45317,-0.01313 4.90662,-0.03804 7.35916,-0.09809 0.56674,-0.01388 1.1346,-0.0091 1.69999,-0.05071 0.4654,-0.03424 0.92588,-0.117672 1.38882,-0.176508 1.0497,-0.574214 0.59676,-0.242026 1.38569,-0.958859 0,0 -0.1046,-0.07604 -0.1046,-0.07604 v 0 c -2.63326,-0.688448 -1.29728,-0.374219 -4.00876,-0.939166 -0.59902,-0.03918 -1.19698,-0.1015 -1.79707,-0.11755 -0.57903,-0.01549 -1.15842,0.01297 -1.73757,0.02301 -2.44104,0.04232 -4.88179,0.110124 -7.32339,0.114987 -1.59096,0.0099 -1.28184,-0.01457 -2.67824,0.06576 -0.28413,0.01635 -1.09237,0.02426 -1.38118,0.21374 -0.0424,0.0278 -0.0476,0.08948 -0.0715,0.134223 0,0 2.09876,1.485755 2.09876,1.485755 z" />
    <path
       style="fill:#ffffff;fill-opacity:0.529412;stroke-width:0.264583"
       id="path68-35"
       d="m 137.87293,31.839691 c 0.17834,0.02102 0.35574,0.05256 0.53501,0.06305 0.30296,0.01774 1.40112,0.0085 1.64146,0.0086 1.16121,2.42e-4 2.32056,0.02497 3.48132,0.05564 1.24363,-0.02552 2.49446,0.161105 3.73811,0.09171 0.35629,-0.01988 1.17354,-0.100571 1.4953,-0.403691 0.12439,-0.117184 0.13294,-0.314872 0.19941,-0.472308 0.10186,-0.100381 0.20372,-0.200762 0.30558,-0.301143 0,0 -0.1975,-0.144702 -0.1975,-0.144702 v 0 c -0.4045,-0.120551 -0.809,-0.241102 -1.21349,-0.361654 -1.38054,-0.458884 -1.5779,-0.581512 -2.96113,-0.834265 -1.68876,-0.30858 -3.40698,-0.234256 -5.11395,-0.311078 -1.16217,-0.02724 -2.3265,-0.06364 -3.4891,-0.0325 -0.32802,0.0088 -1.13273,0.03752 -1.50367,0.124012 -0.10621,0.02477 -0.19884,0.08964 -0.29827,0.134465 0,0 3.38092,2.383896 3.38092,2.383897 z" />
    <path
       style="fill:#ffffff;fill-opacity:0.529412;stroke-width:0.264583"
       id="path72-6"
       d="m 139.35945,36.982925 c 0.16826,0.05937 0.33152,0.13548 0.50478,0.178102 0.75359,0.185375 1.56754,0.14007 2.33459,0.136369 0.99585,-0.0048 1.24255,-0.01389 2.26276,-0.03444 1.86558,-0.06736 3.73292,-0.06068 5.59891,-0.103545 0.43959,-0.01011 0.88345,0.01894 1.31831,-0.04609 0.30197,-0.04516 0.5811,-0.187642 0.87165,-0.281461 -0.0584,-1.056121 -0.30719,-0.737703 0.59096,-1.058534 0,0 -0.0808,-0.05893 -0.0808,-0.05893 v 0 c -2.104,-0.42414 -0.89529,-0.108791 -3.57948,-1.109538 -0.54305,-0.08853 -1.0813,-0.214643 -1.62916,-0.265586 -0.46692,-0.04342 -0.93776,-0.01722 -1.40669,-0.0167 -1.87434,0.0021 -3.74847,0.07239 -5.62269,0.08757 -0.91008,0.009 -1.3809,0.01916 -2.27735,0.0075 -0.324,-0.0042 -1.76127,-0.11947 -2.08669,0.02474 -0.0506,0.02244 -0.0455,0.100989 -0.0683,0.151482 0,0 3.26917,2.389108 3.26917,2.389108 z" />
    <path
       style="fill:#ffffff;fill-opacity:0.529412;stroke-width:0.264583"
       id="path60-4"
       d="m 136.51244,25.487962 c 1.67947,0.409599 3.45191,0.374394 5.16985,0.379447 2.45317,-0.01313 4.90662,-0.03804 7.35916,-0.09809 0.56674,-0.01388 1.1346,-0.0091 1.69999,-0.05071 0.4654,-0.03424 0.92588,-0.117672 1.38882,-0.176508 1.0497,-0.574214 0.59676,-0.242026 1.38569,-0.958859 0,0 -0.1046,-0.07604 -0.1046,-0.07604 v 0 c -2.63326,-0.688448 -1.29728,-0.374219 -4.00876,-0.939166 -0.59902,-0.03918 -1.19698,-0.1015 -1.79707,-0.11755 -0.57903,-0.01549 -1.15842,0.01297 -1.73757,0.02301 -2.44104,0.04232 -4.88179,0.110124 -7.32339,0.114987 -1.59096,0.0099 -1.28184,-0.01457 -2.67824,0.06576 -0.28413,0.01635 -1.09237,0.02426 -1.38118,0.21374 -0.0424,0.0278 -0.0476,0.08948 -0.0715,0.134223 0,0 2.09876,1.485755 2.09876,1.485755 z" />
    <path
       style="fill:#ffffff;fill-opacity:0.529412;stroke-width:0.264583"
       id="path68-6"
       d="m 137.87293,31.839691 c 0.17834,0.02102 0.35574,0.05256 0.53501,0.06305 0.30296,0.01774 1.40112,0.0085 1.64146,0.0086 1.16121,2.42e-4 2.32056,0.02497 3.48132,0.05564 1.24363,-0.02552 2.49446,0.161105 3.73811,0.09171 0.35629,-0.01988 1.17354,-0.100571 1.4953,-0.403691 0.12439,-0.117184 0.13294,-0.314872 0.19941,-0.472308 0.10186,-0.100381 0.20372,-0.200762 0.30558,-0.301143 0,0 -0.1975,-0.144702 -0.1975,-0.144702 v 0 c -0.4045,-0.120551 -0.809,-0.241102 -1.21349,-0.361654 -1.38054,-0.458884 -1.5779,-0.581512 -2.96113,-0.834265 -1.68876,-0.30858 -3.40698,-0.234256 -5.11395,-0.311078 -1.16217,-0.02724 -2.3265,-0.06364 -3.4891,-0.0325 -0.32802,0.0088 -1.13273,0.03752 -1.50367,0.124012 -0.10621,0.02477 -0.19884,0.08964 -0.29827,0.134465 0,0 3.38092,2.383896 3.38092,2.383897 z" />
    <path
       style="fill:#ffffff;fill-opacity:0.529412;stroke-width:0.264583"
       id="path72-2"
       d="m 139.35945,36.982925 c 0.16826,0.05937 0.33152,0.13548 0.50478,0.178102 0.75359,0.185375 1.56754,0.14007 2.33459,0.136369 0.99585,-0.0048 1.24255,-0.01389 2.26276,-0.03444 1.86558,-0.06736 3.73292,-0.06068 5.59891,-0.103545 0.43959,-0.01011 0.88345,0.01894 1.31831,-0.04609 0.30197,-0.04516 0.5811,-0.187642 0.87165,-0.281461 -0.0584,-1.056121 -0.30719,-0.737703 0.59096,-1.058534 0,0 -0.0808,-0.05893 -0.0808,-0.05893 v 0 c -2.104,-0.42414 -0.89529,-0.108791 -3.57948,-1.109538 -0.54305,-0.08853 -1.0813,-0.214643 -1.62916,-0.265586 -0.46692,-0.04342 -0.93776,-0.01722 -1.40669,-0.0167 -1.87434,0.0021 -3.74847,0.07239 -5.62269,0.08757 -0.91008,0.009 -1.3809,0.01916 -2.27735,0.0075 -0.324,-0.0042 -1.76127,-0.11947 -2.08669,0.02474 -0.0506,0.02244 -0.0455,0.100989 -0.0683,0.151482 0,0 3.26917,2.389108 3.26917,2.389108 z" />
    <path
       style="fill:#ffffff;fill-opacity:0.529412;stroke-width:0.264583"
       id="path60-9"
       d="m 136.51244,25.487962 c 1.67947,0.409599 3.45191,0.374394 5.16985,0.379447 2.45317,-0.01313 4.90662,-0.03804 7.35916,-0.09809 0.56674,-0.01388 1.1346,-0.0091 1.69999,-0.05071 0.4654,-0.03424 0.92588,-0.117672 1.38882,-0.176508 1.0497,-0.574214 0.59676,-0.242026 1.38569,-0.958859 0,0 -0.1046,-0.07604 -0.1046,-0.07604 v 0 c -2.63326,-0.688448 -1.29728,-0.374219 -4.00876,-0.939166 -0.59902,-0.03918 -1.19698,-0.1015 -1.79707,-0.11755 -0.57903,-0.01549 -1.15842,0.01297 -1.73757,0.02301 -2.44104,0.04232 -4.88179,0.110124 -7.32339,0.114987 -1.59096,0.0099 -1.28184,-0.01457 -2.67824,0.06576 -0.28413,0.01635 -1.09237,0.02426 -1.38118,0.21374 -0.0424,0.0278 -0.0476,0.08948 -0.0715,0.134223 0,0 2.09876,1.485755 2.09876,1.485755 z" />
    <path
       style="fill:#ffffff;fill-opacity:0.529412;stroke-width:0.264583"
       id="path68-38"
       d="m 137.87293,31.839691 c 0.17834,0.02102 0.35574,0.05256 0.53501,0.06305 0.30296,0.01774 1.40112,0.0085 1.64146,0.0086 1.16121,2.42e-4 2.32056,0.02497 3.48132,0.05564 1.24363,-0.02552 2.49446,0.161105 3.73811,0.09171 0.35629,-0.01988 1.17354,-0.100571 1.4953,-0.403691 0.12439,-0.117184 0.13294,-0.314872 0.19941,-0.472308 0.10186,-0.100381 0.20372,-0.200762 0.30558,-0.301143 0,0 -0.1975,-0.144702 -0.1975,-0.144702 v 0 c -0.4045,-0.120551 -0.809,-0.241102 -1.21349,-0.361654 -1.38054,-0.458884 -1.5779,-0.581512 -2.96113,-0.834265 -1.68876,-0.30858 -3.40698,-0.234256 -5.11395,-0.311078 -1.16217,-0.02724 -2.3265,-0.06364 -3.4891,-0.0325 -0.32802,0.0088 -1.13273,0.03752 -1.50367,0.124012 -0.10621,0.02477 -0.19884,0.08964 -0.29827,0.134465 0,0 3.38092,2.383896 3.38092,2.383897 z" />
    <path
       style="fill:#ffffff;fill-opacity:0.529412;stroke-width:0.264583"
       id="path72-72"
       d="m 139.35945,36.982925 c 0.16826,0.05937 0.33152,0.13548 0.50478,0.178102 0.75359,0.185375 1.56754,0.14007 2.33459,0.136369 0.99585,-0.0048 1.24255,-0.01389 2.26276,-0.03444 1.86558,-0.06736 3.73292,-0.06068 5.59891,-0.103545 0.43959,-0.01011 0.88345,0.01894 1.31831,-0.04609 0.30197,-0.04516 0.5811,-0.187642 0.87165,-0.281461 -0.0584,-1.056121 -0.30719,-0.737703 0.59096,-1.058534 0,0 -0.0808,-0.05893 -0.0808,-0.05893 v 0 c -2.104,-0.42414 -0.89529,-0.108791 -3.57948,-1.109538 -0.54305,-0.08853 -1.0813,-0.214643 -1.62916,-0.265586 -0.46692,-0.04342 -0.93776,-0.01722 -1.40669,-0.0167 -1.87434,0.0021 -3.74847,0.07239 -5.62269,0.08757 -0.91008,0.009 -1.3809,0.01916 -2.27735,0.0075 -0.324,-0.0042 -1.76127,-0.11947 -2.08669,0.02474 -0.0506,0.02244 -0.0455,0.100989 -0.0683,0.151482 0,0 3.26917,2.389108 3.26917,2.389108 z" />
  </g>
</svg>
