<?xml version="1.0" encoding="UTF-8" standalone="no"?>
<!-- Created with Inkscape (http://www.inkscape.org/) -->

<svg
   width="19.10231mm"
   height="13.858938mm"
   viewBox="0 0 19.10231 13.858938"
   version="1.1"
   id="svg5"
   sodipodi:docname="CloseButton.svg"
   inkscape:version="1.2 (dc2aedaf03, 2022-05-15)"
   xmlns:inkscape="http://www.inkscape.org/namespaces/inkscape"
   xmlns:sodipodi="http://sodipodi.sourceforge.net/DTD/sodipodi-0.dtd"
   xmlns="http://www.w3.org/2000/svg"
   xmlns:svg="http://www.w3.org/2000/svg">
  <sodipodi:namedview
     id="namedview7"
     pagecolor="#505050"
     bordercolor="#ffffff"
     borderopacity="1"
     inkscape:showpageshadow="0"
     inkscape:pageopacity="0"
     inkscape:pagecheckerboard="1"
     inkscape:deskcolor="#505050"
     inkscape:document-units="mm"
     showgrid="false"
     inkscape:zoom="5.6568543"
     inkscape:cx="22.715805"
     inkscape:cy="32.703689"
     inkscape:window-width="1366"
     inkscape:window-height="697"
     inkscape:window-x="-8"
     inkscape:window-y="-8"
     inkscape:window-maximized="1"
     inkscape:current-layer="layer1" />
  <defs
     id="defs2" />
  <g
     inkscape:label="Camada 1"
     inkscape:groupmode="layer"
     id="layer1"
     transform="translate(-134.41364,-23.445962)"
     inkscape:export-filename="CloseButton.png"
     inkscape:export-xdpi="96"
     inkscape:export-ydpi="96">
    <g
       id="g176"
       transform="rotate(41.700925,142.77852,30.781015)">
      <path
         style="fill:#ffffff;fill-opacity:0.529412;stroke-width:0.263864"
         id="path60-1"
         d="m 136.56342,30.415894 c 1.67066,0.409528 3.43379,0.374325 5.14271,0.379384 2.4403,-0.0131 4.88086,-0.03799 7.32053,-0.09808 0.56376,-0.0139 1.12864,-0.009 1.69107,-0.0507 0.46295,-0.0342 0.92101,-0.11765 1.38153,-0.176479 1.04419,-0.574111 0.59362,-0.241988 1.37841,-0.958693 0,0 -0.10405,-0.07599 -0.10405,-0.07599 v 0 c -2.61943,-0.68833 -1.29047,-0.374155 -3.98772,-0.939006 -0.59587,-0.03919 -1.19069,-0.101483 -1.78764,-0.11753 -0.57599,-0.0155 -1.15233,0.013 -1.72843,0.023 -2.42824,0.04229 -4.85618,0.110111 -7.28495,0.11497 -1.58261,0.01 -1.27512,-0.0146 -2.66419,0.06579 -0.28264,0.0163 -1.08664,0.0243 -1.37392,0.213703 -0.0422,0.02779 -0.0474,0.08948 -0.0711,0.134197 0,0 2.08774,1.485501 2.08774,1.485501 z" />
      <path
         style="fill:#ffffff;fill-opacity:0.529412;stroke-width:0.263864"
         id="path60-4"
         d="m 136.56342,30.415894 c 1.67066,0.409528 3.43379,0.374325 5.14271,0.379384 2.4403,-0.0131 4.88086,-0.03799 7.32053,-0.09808 0.56376,-0.0139 1.12864,-0.009 1.69107,-0.0507 0.46295,-0.0342 0.92101,-0.11765 1.38153,-0.176479 1.04419,-0.574111 0.59362,-0.241988 1.37841,-0.958693 0,0 -0.10405,-0.07599 -0.10405,-0.07599 v 0 c -2.61943,-0.68833 -1.29047,-0.374155 -3.98772,-0.939006 -0.59587,-0.03919 -1.19069,-0.101483 -1.78764,-0.11753 -0.57599,-0.0155 -1.15233,0.013 -1.72843,0.023 -2.42824,0.04229 -4.85618,0.110111 -7.28495,0.11497 -1.58261,0.01 -1.27512,-0.0146 -2.66419,0.06579 -0.28264,0.0163 -1.08664,0.0243 -1.37392,0.213703 -0.0422,0.02779 -0.0474,0.08948 -0.0711,0.134197 0,0 2.08774,1.485501 2.08774,1.485501 z" />
      <path
         style="fill:#ffffff;fill-opacity:0.529412;stroke-width:0.263864"
         id="path60-9"
         d="m 136.56342,30.415894 c 1.67066,0.409528 3.43379,0.374325 5.14271,0.379384 2.4403,-0.0131 4.88086,-0.03799 7.32053,-0.09808 0.56376,-0.0139 1.12864,-0.009 1.69107,-0.0507 0.46295,-0.0342 0.92101,-0.11765 1.38153,-0.176479 1.04419,-0.574111 0.59362,-0.241988 1.37841,-0.958693 0,0 -0.10405,-0.07599 -0.10405,-0.07599 v 0 c -2.61943,-0.68833 -1.29047,-0.374155 -3.98772,-0.939006 -0.59587,-0.03919 -1.19069,-0.101483 -1.78764,-0.11753 -0.57599,-0.0155 -1.15233,0.013 -1.72843,0.023 -2.42824,0.04229 -4.85618,0.110111 -7.28495,0.11497 -1.58261,0.01 -1.27512,-0.0146 -2.66419,0.06579 -0.28264,0.0163 -1.08664,0.0243 -1.37392,0.213703 -0.0422,0.02779 -0.0474,0.08948 -0.0711,0.134197 0,0 2.08774,1.485501 2.08774,1.485501 z" />
      <path
         style="fill:#ffffff;fill-opacity:0.529412;stroke-width:0.263864"
         id="path60-1-3"
         d="m 136.56446,30.416662 c 1.67068,0.409444 3.43381,0.374148 5.14272,0.379118 2.4403,-0.01319 4.88087,-0.03825 7.32053,-0.09847 0.56377,-0.01392 1.12864,-0.0091 1.69108,-0.05079 0.46294,-0.03422 0.921,-0.117693 1.38151,-0.176545 1.04417,-0.574171 0.59361,-0.242023 1.37837,-0.958771 0,0 -0.10404,-0.076 -0.10404,-0.076 v 0 c -2.61946,-0.688194 -1.29048,-0.374091 -3.98776,-0.938801 -0.59587,-0.03916 -1.19069,-0.101425 -1.78765,-0.117433 -0.57599,-0.01546 -1.15233,0.01309 -1.72842,0.02308 -2.42825,0.04242 -4.85618,0.110366 -7.28495,0.115356 -1.58261,0.0101 -1.27512,-0.0145 -2.66418,0.06593 -0.28264,0.01631 -1.08664,0.02436 -1.37392,0.213774 -0.0422,0.02782 -0.0474,0.08948 -0.071,0.134205 0,0 2.08782,1.485396 2.08782,1.485396 z" />
      <path
         style="fill:#ffffff;fill-opacity:0.529412;stroke-width:0.263864"
         id="path60-4-9"
         d="m 136.56446,30.416662 c 1.67068,0.409444 3.43381,0.374148 5.14272,0.379118 2.4403,-0.01319 4.88087,-0.03825 7.32053,-0.09847 0.56377,-0.01392 1.12864,-0.0091 1.69108,-0.05079 0.46294,-0.03422 0.921,-0.117693 1.38151,-0.176545 1.04417,-0.574171 0.59361,-0.242023 1.37837,-0.958771 0,0 -0.10404,-0.076 -0.10404,-0.076 v 0 c -2.61946,-0.688194 -1.29048,-0.374091 -3.98776,-0.938801 -0.59587,-0.03916 -1.19069,-0.101425 -1.78765,-0.117433 -0.57599,-0.01546 -1.15233,0.01309 -1.72842,0.02308 -2.42825,0.04242 -4.85618,0.110366 -7.28495,0.115356 -1.58261,0.0101 -1.27512,-0.0145 -2.66418,0.06593 -0.28264,0.01631 -1.08664,0.02436 -1.37392,0.213774 -0.0422,0.02782 -0.0474,0.08948 -0.071,0.134205 0,0 2.08782,1.485396 2.08782,1.485396 z" />
      <path
         style="fill:#ffffff;fill-opacity:0.529412;stroke-width:0.263864"
         id="path60-9-4"
         d="m 136.56446,30.416662 c 1.67068,0.409444 3.43381,0.374148 5.14272,0.379118 2.4403,-0.01319 4.88087,-0.03825 7.32053,-0.09847 0.56377,-0.01392 1.12864,-0.0091 1.69108,-0.05079 0.46294,-0.03422 0.921,-0.117693 1.38151,-0.176545 1.04417,-0.574171 0.59361,-0.242023 1.37837,-0.958771 0,0 -0.10404,-0.076 -0.10404,-0.076 v 0 c -2.61946,-0.688194 -1.29048,-0.374091 -3.98776,-0.938801 -0.59587,-0.03916 -1.19069,-0.101425 -1.78765,-0.117433 -0.57599,-0.01546 -1.15233,0.01309 -1.72842,0.02308 -2.42825,0.04242 -4.85618,0.110366 -7.28495,0.115356 -1.58261,0.0101 -1.27512,-0.0145 -2.66418,0.06593 -0.28264,0.01631 -1.08664,0.02436 -1.37392,0.213774 -0.0422,0.02782 -0.0474,0.08948 -0.071,0.134205 0,0 2.08782,1.485396 2.08782,1.485396 z" />
    </g>
    <g
       id="g186"
       transform="rotate(-41.499256,137.70424,33.509509)">
      <path
         style="fill:#ffffff;fill-opacity:0.529412;stroke-width:0.264583"
         id="path72-6"
         d="m 139.35945,36.982925 c 0.16826,0.05937 0.33152,0.13548 0.50478,0.178102 0.75359,0.185375 1.56754,0.14007 2.33459,0.136369 0.99585,-0.0048 1.24255,-0.01389 2.26276,-0.03444 1.86558,-0.06736 3.73292,-0.06068 5.59891,-0.103545 0.43959,-0.01011 0.88345,0.01894 1.31831,-0.04609 0.30197,-0.04516 0.5811,-0.187642 0.87165,-0.281461 -0.0584,-1.056121 -0.30719,-0.737703 0.59096,-1.058534 0,0 -0.0808,-0.05893 -0.0808,-0.05893 v 0 c -2.104,-0.42414 -0.89529,-0.108791 -3.57948,-1.109538 -0.54305,-0.08853 -1.0813,-0.214643 -1.62916,-0.265586 -0.46692,-0.04342 -0.93776,-0.01722 -1.40669,-0.0167 -1.87434,0.0021 -3.74847,0.07239 -5.62269,0.08757 -0.91008,0.009 -1.3809,0.01916 -2.27735,0.0075 -0.324,-0.0042 -1.76127,-0.11947 -2.08669,0.02474 -0.0506,0.02244 -0.0455,0.100989 -0.0683,0.151482 0,0 3.26917,2.389108 3.26917,2.389108 z" />
      <path
         style="fill:#ffffff;fill-opacity:0.529412;stroke-width:0.264583"
         id="path72-2"
         d="m 139.35945,36.982925 c 0.16826,0.05937 0.33152,0.13548 0.50478,0.178102 0.75359,0.185375 1.56754,0.14007 2.33459,0.136369 0.99585,-0.0048 1.24255,-0.01389 2.26276,-0.03444 1.86558,-0.06736 3.73292,-0.06068 5.59891,-0.103545 0.43959,-0.01011 0.88345,0.01894 1.31831,-0.04609 0.30197,-0.04516 0.5811,-0.187642 0.87165,-0.281461 -0.0584,-1.056121 -0.30719,-0.737703 0.59096,-1.058534 0,0 -0.0808,-0.05893 -0.0808,-0.05893 v 0 c -2.104,-0.42414 -0.89529,-0.108791 -3.57948,-1.109538 -0.54305,-0.08853 -1.0813,-0.214643 -1.62916,-0.265586 -0.46692,-0.04342 -0.93776,-0.01722 -1.40669,-0.0167 -1.87434,0.0021 -3.74847,0.07239 -5.62269,0.08757 -0.91008,0.009 -1.3809,0.01916 -2.27735,0.0075 -0.324,-0.0042 -1.76127,-0.11947 -2.08669,0.02474 -0.0506,0.02244 -0.0455,0.100989 -0.0683,0.151482 0,0 3.26917,2.389108 3.26917,2.389108 z" />
      <path
         style="fill:#ffffff;fill-opacity:0.529412;stroke-width:0.264583"
         id="path72-72"
         d="m 139.35945,36.982925 c 0.16826,0.05937 0.33152,0.13548 0.50478,0.178102 0.75359,0.185375 1.56754,0.14007 2.33459,0.136369 0.99585,-0.0048 1.24255,-0.01389 2.26276,-0.03444 1.86558,-0.06736 3.73292,-0.06068 5.59891,-0.103545 0.43959,-0.01011 0.88345,0.01894 1.31831,-0.04609 0.30197,-0.04516 0.5811,-0.187642 0.87165,-0.281461 -0.0584,-1.056121 -0.30719,-0.737703 0.59096,-1.058534 0,0 -0.0808,-0.05893 -0.0808,-0.05893 v 0 c -2.104,-0.42414 -0.89529,-0.108791 -3.57948,-1.109538 -0.54305,-0.08853 -1.0813,-0.214643 -1.62916,-0.265586 -0.46692,-0.04342 -0.93776,-0.01722 -1.40669,-0.0167 -1.87434,0.0021 -3.74847,0.07239 -5.62269,0.08757 -0.91008,0.009 -1.3809,0.01916 -2.27735,0.0075 -0.324,-0.0042 -1.76127,-0.11947 -2.08669,0.02474 -0.0506,0.02244 -0.0455,0.100989 -0.0683,0.151482 0,0 3.26917,2.389108 3.26917,2.389108 z" />
      <path
         style="fill:#ffffff;fill-opacity:0.529412;stroke-width:0.264583"
         id="path72-6-1"
         d="m 139.358,36.986464 c 0.16828,0.05936 0.33152,0.135486 0.50479,0.178111 0.75358,0.185382 1.56754,0.140042 2.33457,0.136391 0.99587,-0.0048 1.24257,-0.01392 2.26277,-0.0344 1.86559,-0.06735 3.73292,-0.06064 5.59891,-0.103478 0.43959,-0.01012 0.88346,0.01895 1.31831,-0.04608 0.30198,-0.04517 0.58112,-0.187635 0.87165,-0.281455 -0.0584,-1.056117 -0.30718,-0.737703 0.59098,-1.058521 0,0 -0.0808,-0.05896 -0.0808,-0.05896 v 0 c -2.10398,-0.424165 -0.89528,-0.108799 -3.57946,-1.109577 -0.54305,-0.08854 -1.08128,-0.214655 -1.62915,-0.265603 -0.46691,-0.0434 -0.93777,-0.01722 -1.4067,-0.01672 -1.87433,0.002 -3.74846,0.07234 -5.62268,0.08751 -0.91009,0.009 -1.3809,0.01915 -2.27735,0.0076 -0.324,-0.0043 -1.76127,-0.119492 -2.08669,0.0247 -0.0506,0.02245 -0.0454,0.100967 -0.0684,0.151467 0,0 3.26914,2.389147 3.26914,2.389147 z" />
      <path
         style="fill:#ffffff;fill-opacity:0.529412;stroke-width:0.264583"
         id="path72-2-1"
         d="m 139.358,36.986464 c 0.16828,0.05936 0.33152,0.135486 0.50479,0.178111 0.75358,0.185382 1.56754,0.140042 2.33457,0.136391 0.99587,-0.0048 1.24257,-0.01392 2.26277,-0.0344 1.86559,-0.06735 3.73292,-0.06064 5.59891,-0.103478 0.43959,-0.01012 0.88346,0.01895 1.31831,-0.04608 0.30198,-0.04517 0.58112,-0.187635 0.87165,-0.281455 -0.0584,-1.056117 -0.30718,-0.737703 0.59098,-1.058521 0,0 -0.0808,-0.05896 -0.0808,-0.05896 v 0 c -2.10398,-0.424165 -0.89528,-0.108799 -3.57946,-1.109577 -0.54305,-0.08854 -1.08128,-0.214655 -1.62915,-0.265603 -0.46691,-0.0434 -0.93777,-0.01722 -1.4067,-0.01672 -1.87433,0.002 -3.74846,0.07234 -5.62268,0.08751 -0.91009,0.009 -1.3809,0.01915 -2.27735,0.0076 -0.324,-0.0043 -1.76127,-0.119492 -2.08669,0.0247 -0.0506,0.02245 -0.0454,0.100967 -0.0684,0.151467 0,0 3.26914,2.389147 3.26914,2.389147 z" />
      <path
         style="fill:#ffffff;fill-opacity:0.529412;stroke-width:0.264583"
         id="path72-72-1"
         d="m 139.358,36.986464 c 0.16828,0.05936 0.33152,0.135486 0.50479,0.178111 0.75358,0.185382 1.56754,0.140042 2.33457,0.136391 0.99587,-0.0048 1.24257,-0.01392 2.26277,-0.0344 1.86559,-0.06735 3.73292,-0.06064 5.59891,-0.103478 0.43959,-0.01012 0.88346,0.01895 1.31831,-0.04608 0.30198,-0.04517 0.58112,-0.187635 0.87165,-0.281455 -0.0584,-1.056117 -0.30718,-0.737703 0.59098,-1.058521 0,0 -0.0808,-0.05896 -0.0808,-0.05896 v 0 c -2.10398,-0.424165 -0.89528,-0.108799 -3.57946,-1.109577 -0.54305,-0.08854 -1.08128,-0.214655 -1.62915,-0.265603 -0.46691,-0.0434 -0.93777,-0.01722 -1.4067,-0.01672 -1.87433,0.002 -3.74846,0.07234 -5.62268,0.08751 -0.91009,0.009 -1.3809,0.01915 -2.27735,0.0076 -0.324,-0.0043 -1.76127,-0.119492 -2.08669,0.0247 -0.0506,0.02245 -0.0454,0.100967 -0.0684,0.151467 0,0 3.26914,2.389147 3.26914,2.389147 z" />
    </g>
  </g>
</svg>
